<?xml version="1.0" encoding="UTF-8" standalone="no"?>
<svg
   width="512"
   height="512"
   viewBox="0 0 512 512"
   version="1.1"
   id="svg53"
   xmlns="http://www.w3.org/2000/svg"
   xmlns:svg="http://www.w3.org/2000/svg">
  <defs
     id="defs2">
    <linearGradient
       id="gradient_0"
       gradientUnits="userSpaceOnUse"
       x1="511.70273"
       y1="659.51105"
       x2="511.49634"
       y2="410.84854"
       gradientTransform="matrix(0.63011074,0,0,0.63011074,-64.722971,-86.528908)">
      <stop
         offset="0"
         stop-color="#F5C174"
         id="stop1" />
      <stop
         offset="1"
         stop-color="#FEFFCD"
         id="stop2" />
    </linearGradient>
  </defs>
  <path
     fill="url(#gradient_0)"
     d="m 158.27763,79.336403 c 2.88969,-4.483868 9.93811,-7.808962 15.01869,-8.93434 10.74969,-2.381188 24.22839,1.427831 33.33664,7.197125 8.87133,5.618698 9.0005,10.249381 19.10055,14.815794 2.23689,0.676739 5.86633,1.476349 8.12212,1.564565 11.99857,0.466282 46.43412,1.756119 56.55181,-1.639548 7.06795,-2.67419 9.70182,-7.916081 15.39613,-12.333788 14.20395,-11.018746 39.49093,-16.123904 52.24311,-0.224319 5.11902,2.721448 11.70872,6.864426 14.69859,11.999199 6.47187,9.352099 9.00176,20.876829 7.04275,32.080199 -1.56267,9.1429 -6.47376,17.91468 -13.93427,23.52329 1.67673,9.14039 6.82473,12.97209 6.72643,22.36074 1.94263,3.16505 0.91177,9.2872 -1.08757,12.20588 -4.42527,7.71381 -12.44847,9.16874 -18.85606,13.23799 4.06673,7.29857 8.40505,20.72434 10.61925,28.96304 0.2867,0.79961 0.56899,1.63514 0.88531,2.419 15.25939,6.56134 30.06888,14.1233 44.33144,22.63736 9.51467,5.6439 27.22394,16.16108 28.72297,28.33419 4.45551,23.53274 -21.97322,33.87349 -40.04165,38.48212 -1.11592,0.28481 -2.76114,0.69375 -3.8065,1.10521 l 0.0454,0.0888 c -1.17201,0.0769 -1.22304,-0.13674 -1.84748,0.49338 -1.3831,8.81777 -3.35219,16.87184 -5.47882,25.47033 -0.70383,2.84684 -4.3591,15.25183 -4.41518,17.24298 -0.12603,2.03274 -0.27284,4.07745 -0.32955,6.11271 -1.42405,-0.23882 -3.99364,-1.34151 -5.43156,-1.91239 -8.38362,-3.37991 -16.56435,-5.67793 -25.51948,-6.9999 -3.56958,-0.5274 -9.81019,-1.19784 -12.75659,-2.85062 4.88147,-6.29859 7.12844,-14.98908 8.59345,-22.72684 -6.64578,-3.52294 -17.79748,-5.97407 -20.36266,-13.42639 l -4.09509,-2.03526 c -1.21296,0.76558 -9.27019,4.12785 -10.99543,4.72772 -36.4872,12.68854 -82.03853,11.64823 -117.04181,-4.73528 -1.15563,0.55449 -3.12787,1.41586 -4.09257,2.14111 -2.74539,7.49706 -13.39553,10.07421 -20.08667,13.55431 0.48707,2.92498 2.0466,8.26958 2.28289,10.28026 2.90733,7.50336 4.11336,10.40124 10.07547,15.96575 -4.38935,-0.41525 -14.51838,0.62192 -19.06274,1.51352 -1.54692,0.30309 -2.94703,1.30937 -4.11462,1.51227 -2.05795,0.35727 -7.59725,0.14303 -9.29729,1.16381 l 0.64776,0.42155 c -0.18274,0.94831 0.0145,0.51732 -0.72148,1.2766 -5.24945,0.96092 -8.50839,1.38247 -13.60976,3.16694 -0.5482,1.75045 -1.0359,3.85187 -2.11339,5.28474 0.70509,-2.9924 0.80402,-4.10769 0.80402,-7.13412 -0.0643,-1.29991 -0.24638,-2.86637 -0.36295,-4.18708 l -0.10775,-0.86451 c 0.16572,-2.11844 -5.12721,-20.44332 -5.93501,-23.88624 -1.46501,-6.49581 -2.74287,-13.03195 -3.83233,-19.60149 l -1.20918,-0.22873 c -19.41624,-4.71638 -48.570199,-13.69986 -44.555759,-39.29433 0.31001,-1.5318 0.80276,-3.02012 1.46815,-4.43409 6.19651,-13.28652 26.383999,-23.63798 38.891069,-30.56226 9.95008,-5.50969 22.59073,-12.10821 33.19864,-15.91975 l 0.7303,-2.47823 c 2.22933,-9.58335 6.39689,-20.10179 10.14478,-29.1275 -11.78748,-6.44918 -23.21706,-9.98977 -19.86172,-26.44196 0.58286,-8.44475 5.31625,-12.56063 6.99675,-21.20827 -5.56324,-4.61178 -9.37667,-9.21915 -11.83159,-16.09114 -5.2778,-14.77294 -3.50782,-28.41106 5.76804,-40.974838 5.28033,-6.725172 7.55503,-6.748486 14.03886,-10.798837 z"
     id="path2"
     style="fill:url(#gradient_0);stroke-width:0.630111" />
  <defs
     id="defs4">
    <linearGradient
       id="gradient_1"
       gradientUnits="userSpaceOnUse"
       x1="512.09631"
       y1="425.06195"
       x2="509.90475"
       y2="298.11258"
       gradientTransform="matrix(0.63011074,0,0,0.63011074,-64.722971,-86.528908)">
      <stop
         offset="0"
         stop-color="#7DAC38"
         id="stop3" />
      <stop
         offset="1"
         stop-color="#AFD66D"
         id="stop4" />
    </linearGradient>
  </defs>
  <path
     fill="url(#gradient_1)"
     d="m 158.27763,79.336403 c 2.88969,-4.483868 9.93811,-7.808962 15.01869,-8.93434 10.74969,-2.381188 24.22839,1.427831 33.33664,7.197125 8.87133,5.618698 9.0005,10.249381 19.10055,14.815794 2.23689,0.676739 5.86633,1.476349 8.12212,1.564565 11.99857,0.466282 46.43412,1.756119 56.55181,-1.639548 7.06795,-2.67419 9.70182,-7.916081 15.39613,-12.333788 14.20395,-11.018746 39.49093,-16.123904 52.24311,-0.224319 5.11902,2.721448 11.70872,6.864426 14.69859,11.999199 6.47187,9.352099 9.00176,20.876829 7.04275,32.080199 -1.56267,9.1429 -6.47376,17.91468 -13.93427,23.52329 1.67673,9.14039 6.82473,12.97209 6.72643,22.36074 -1.26904,4.32823 -2.22429,5.24819 -6.30362,7.475 -0.44234,0.24071 -0.88594,0.47952 -1.33143,0.71518 0.0258,-10e-4 -6.85371,1.6679 -8.15993,1.85253 -5.38304,0.75991 -9.34265,0.75739 -14.71813,0.77251 -17.57253,0.0504 -34.8571,-2.67545 -52.36157,-3.60675 -10.17818,-0.54127 -20.0684,0.7158 -30.2157,0.87396 -9.43024,0.14682 -18.76218,-1.03968 -28.20817,-1.02393 -7.71508,0.0132 -15.15164,0.79079 -22.82702,1.53306 -13.81833,1.33584 -27.54151,2.58534 -41.4594,2.19216 -6.10073,-0.17265 -14.95127,-1.14618 -20.09171,-4.84808 -2.54565,-1.83362 -3.4801,-3.97536 -3.9111,-6.98099 0.58286,-8.44475 5.31625,-12.56063 6.99675,-21.20827 -5.56324,-4.61178 -9.37667,-9.21915 -11.83159,-16.09114 -5.2778,-14.77294 -3.50782,-28.41106 5.76804,-40.974838 5.28033,-6.725172 7.55503,-6.748486 14.03886,-10.798837 z"
     id="path4"
     style="fill:url(#gradient_1);stroke-width:0.630111" />
  <defs
     id="defs6">
    <linearGradient
       id="gradient_2"
       gradientUnits="userSpaceOnUse"
       x1="381.83392"
       y1="371.65762"
       x2="348.64697"
       y2="275.5773"
       gradientTransform="matrix(0.63011074,0,0,0.63011074,-64.722971,-86.528908)">
      <stop
         offset="0"
         stop-color="#DD4517"
         id="stop5" />
      <stop
         offset="1"
         stop-color="#F57D49"
         id="stop6" />
    </linearGradient>
  </defs>
  <path
     fill="url(#gradient_2)"
     d="m 158.27763,79.336403 c 2.88969,-4.483868 9.93811,-7.808962 15.01869,-8.93434 10.74969,-2.381188 24.22839,1.427831 33.33664,7.197125 8.87133,5.618698 9.0005,10.249381 19.10055,14.815794 -0.38626,3.13039 -0.80781,5.263315 -1.48581,8.342038 -0.64019,1.63892 -1.26904,3.43095 -2.11087,4.9596 0.097,-1.22494 0.45935,-2.20602 -0.0517,-2.98168 -4.49836,-1.97981 -20.83461,3.03587 -25.33423,5.3238 -0.17769,2.06361 0.44423,2.89914 -0.23503,5.03963 -0.14934,6.07363 -0.72085,12.71563 -2.91552,18.43073 -2.60236,5.27781 -3.94576,8.27651 -8.00178,12.53228 -8.25571,8.66339 -22.68146,13.42829 -32.98062,4.96905 l -2.62883,-1.53873 c -5.56324,-4.61178 -9.37667,-9.21915 -11.83159,-16.09114 -5.2778,-14.77294 -3.50782,-28.41106 5.76804,-40.974838 5.28033,-6.725172 7.55503,-6.748486 14.03886,-10.798837 z"
     id="path6"
     style="fill:url(#gradient_2);stroke-width:0.630111" />
  <defs
     id="defs8">
    <linearGradient
       id="gradient_3"
       gradientUnits="userSpaceOnUse"
       x1="386.02972"
       y1="345.83585"
       x2="361.04291"
       y2="262.68411"
       gradientTransform="matrix(0.63011074,0,0,0.63011074,-64.722971,-86.528908)">
      <stop
         offset="0"
         stop-color="#F15E2B"
         id="stop7" />
      <stop
         offset="1"
         stop-color="#F79A63"
         id="stop8" />
    </linearGradient>
  </defs>
  <path
     fill="url(#gradient_3)"
     d="m 157.96446,79.626885 c 1.48581,0.09893 5.25639,-0.646494 7.08308,-0.774407 7.03078,-0.499047 13.92419,2.126624 18.84157,7.176962 3.83422,3.904796 5.56199,7.68105 7.45673,12.667746 -1.45744,2.443574 -1.16948,6.668464 -1.54251,9.611704 -2.07117,16.35012 -9.39306,26.8465 -27.07145,26.84776 -1.55763,1.57843 -3.59793,3.56517 -5.85184,3.98734 -8.07676,1.4543 -12.63057,-10.59657 -13.6022,-16.83782 -1.52486,-9.79633 0.67107,-16.66894 6.31812,-24.445771 l -0.46943,-0.174541 c 0.4833,-0.997465 1.7536,-2.258317 2.54061,-3.124089 -0.90043,-0.715806 -2.37993,-0.734079 -3.44608,-1.322602 -1.4524,-0.801501 -2.93316,-1.865758 -4.29546,-2.813445 5.28033,-6.725172 7.55503,-6.748486 14.03886,-10.798837 z"
     id="path8"
     style="fill:url(#gradient_3);stroke-width:0.630111" />
  <defs
     id="defs10">
    <linearGradient
       id="gradient_4"
       gradientUnits="userSpaceOnUse"
       x1="347.50555"
       y1="357.39551"
       x2="355.53488"
       y2="280.9783"
       gradientTransform="matrix(0.63011074,0,0,0.63011074,-64.722971,-86.528908)">
      <stop
         offset="0"
         stop-color="#181616"
         id="stop9" />
      <stop
         offset="1"
         stop-color="#393838"
         id="stop10" />
    </linearGradient>
  </defs>
  <path
     fill="url(#gradient_4)"
     d="m 149.59596,97.860399 c 21.30027,-24.792967 29.04937,17.179971 13.13592,37.296251 -1.55763,1.57843 -3.59793,3.56517 -5.85184,3.98734 -8.07676,1.4543 -12.63057,-10.59657 -13.6022,-16.83782 -1.52486,-9.79633 0.67107,-16.66894 6.31812,-24.445771 z"
     id="path10"
     style="fill:url(#gradient_4);stroke-width:0.630111" />
  <path
     fill="#ffffff"
     d="m 151.86562,97.775964 c 7.05598,-0.436036 7.56952,7.200906 1.20793,10.197086 -7.60418,0.86703 -7.43909,-7.21666 -1.20793,-10.197086 z"
     id="path11"
     style="stroke-width:0.630111" />
  <defs
     id="defs12">
    <linearGradient
       id="gradient_5"
       gradientUnits="userSpaceOnUse"
       x1="414.71658"
       y1="308.30746"
       x2="403.82498"
       y2="245.13379"
       gradientTransform="matrix(0.63011074,0,0,0.63011074,-64.722971,-86.528908)">
      <stop
         offset="0"
         stop-color="#90B94E"
         id="stop11" />
      <stop
         offset="1"
         stop-color="#C4E987"
         id="stop12" />
    </linearGradient>
  </defs>
  <path
     fill="url(#gradient_5)"
     d="m 158.27763,79.336403 c 2.88969,-4.483868 9.93811,-7.808962 15.01869,-8.93434 10.74969,-2.381188 24.22839,1.427831 33.33664,7.197125 8.87133,5.618698 9.0005,10.249381 19.10055,14.815794 -0.38626,3.13039 -0.80781,5.263315 -1.48581,8.342038 -0.64019,1.63892 -1.26904,3.43095 -2.11087,4.9596 0.097,-1.22494 0.45935,-2.20602 -0.0517,-2.98168 -4.49836,-1.97981 -20.83461,3.03587 -25.33423,5.3238 -0.17769,2.06361 0.44423,2.89914 -0.23503,5.03963 -0.1172,-5.31814 -1.09324,-10.58208 -2.89032,-15.588943 -4.59981,-12.481863 -15.84854,-22.727464 -30.2743,-20.128257 -1.3352,0.240702 -3.7145,1.438543 -5.07365,1.955233 z"
     id="path12"
     style="fill:url(#gradient_5);stroke-width:0.630111" />
  <defs
     id="defs14">
    <linearGradient
       id="gradient_6"
       gradientUnits="userSpaceOnUse"
       x1="404.20599"
       y1="358.23672"
       x2="336.00558"
       y2="280.89474"
       gradientTransform="matrix(0.63011074,0,0,0.63011074,-64.722971,-86.528908)">
      <stop
         offset="0"
         stop-color="#21211F"
         id="stop13" />
      <stop
         offset="1"
         stop-color="#474A47"
         id="stop14" />
    </linearGradient>
  </defs>
  <path
     fill="url(#gradient_6)"
     d="m 158.27763,79.336403 c 1.35915,-0.51669 3.73845,-1.714531 5.07365,-1.955233 14.42576,-2.599207 25.67449,7.646394 30.2743,20.128257 1.79708,5.006863 2.77312,10.270803 2.89032,15.588943 -0.14934,6.07363 -0.72085,12.71563 -2.91552,18.43073 -2.60236,5.27781 -3.94576,8.27651 -8.00178,12.53228 -8.25571,8.66339 -22.68146,13.42829 -32.98062,4.96905 24.2977,8.75413 41.55328,-12.11199 41.27225,-35.36118 -0.0687,-5.68045 -0.97289,-9.56697 -2.54439,-14.972064 -1.89474,-4.986696 -3.62251,-8.76295 -7.45673,-12.667746 -4.91738,-5.050338 -11.81079,-7.676009 -18.84157,-7.176962 -1.82669,0.127913 -5.59727,0.873334 -7.08308,0.774407 z"
     id="path14"
     style="fill:url(#gradient_6);stroke-width:0.630111" />
  <defs
     id="defs16">
    <linearGradient
       id="gradient_7"
       gradientUnits="userSpaceOnUse"
       x1="659.00153"
       y1="376.00659"
       x2="660.2088"
       y2="284.05634"
       gradientTransform="matrix(0.63011074,0,0,0.63011074,-64.722971,-86.528908)">
      <stop
         offset="0"
         stop-color="#E14416"
         id="stop15" />
      <stop
         offset="1"
         stop-color="#F7814C"
         id="stop16" />
    </linearGradient>
  </defs>
  <path
     fill="url(#gradient_7)"
     d="m 290.40744,92.339999 c 7.06795,-2.67419 9.70182,-7.916081 15.39613,-12.333788 14.20395,-11.018746 39.49093,-16.123904 52.24311,-0.224319 5.11902,2.721448 11.70872,6.864426 14.69859,11.999199 6.47187,9.352099 9.00176,20.876829 7.04275,32.080199 -1.56267,9.1429 -6.47376,17.91468 -13.93427,23.52329 -0.69312,0.44297 -2.36417,1.57843 -3.01382,1.90483 -1.23943,0.97919 -3.47443,2.22177 -4.97598,2.77815 -15.44465,5.72204 -30.53391,-7.0251 -35.78021,-20.76278 -2.93191,-8.88015 -3.0699,-14.38101 -2.41711,-23.51636 l -0.23503,-0.28922 c -0.1884,-1.93948 0.76559,-2.29738 -0.83552,-3.90542 -2.66033,-0.47385 -6.21983,-0.99243 -8.78753,-1.61813 -3.67985,-0.89728 -14.52027,-4.524823 -17.95752,-2.834236 -0.07,1.255176 -0.004,1.492106 0.22431,2.751696 l -0.79394,-0.88468 c 0.0189,-2.765554 -1.69562,-5.283476 -0.87396,-8.668431 z"
     id="path16"
     style="fill:url(#gradient_7);stroke-width:0.630111" />
  <defs
     id="defs18">
    <linearGradient
       id="gradient_8"
       gradientUnits="userSpaceOnUse"
       x1="676.72455"
       y1="356.9097"
       x2="667.26654"
       y2="281.03052"
       gradientTransform="matrix(0.63011074,0,0,0.63011074,-64.722971,-86.528908)">
      <stop
         offset="0"
         stop-color="#181617"
         id="stop17" />
      <stop
         offset="1"
         stop-color="#373636"
         id="stop18" />
    </linearGradient>
  </defs>
  <path
     fill="url(#gradient_8)"
     d="m 346.5919,96.417445 c 5.75669,-10.540492 13.61984,-5.260794 19.89385,1.336465 1.09261,1.53558 2.12663,3.11149 3.10015,4.72457 3.81154,6.44666 4.35595,15.82523 2.436,22.94359 -1.17452,4.35407 -3.74852,10.4422 -7.87827,12.67468 -1.89789,1.04913 -4.15558,1.2306 -6.19651,0.49779 -4.29294,-1.54945 -7.60039,-7.0396 -9.39747,-11.02694 -4.48072,-9.94189 -5.84365,-20.7987 -1.95775,-31.150155 z"
     id="path18"
     style="fill:url(#gradient_8);stroke-width:0.630111" />
  <path
     fill="#ffffff"
     d="m 360.72024,97.775964 c 6.11522,-0.715176 10.84672,5.675406 5.55253,10.143526 -0.47888,0.0649 -0.93823,0.13421 -1.42216,0.14744 -1.85441,0.034 -3.63762,-0.71139 -4.91675,-2.05353 -2.72838,-2.82415 -1.83362,-5.82096 0.78638,-8.237436 z"
     id="path19"
     style="stroke-width:0.630111" />
  <defs
     id="defs20">
    <linearGradient
       id="gradient_9"
       gradientUnits="userSpaceOnUse"
       x1="610.40955"
       y1="302.70258"
       x2="618.64062"
       y2="245.42744"
       gradientTransform="matrix(0.63011074,0,0,0.63011074,-64.722971,-86.528908)">
      <stop
         offset="0"
         stop-color="#92BB50"
         id="stop19" />
      <stop
         offset="1"
         stop-color="#C4E887"
         id="stop20" />
    </linearGradient>
  </defs>
  <path
     fill="url(#gradient_9)"
     d="m 290.40744,92.339999 c 7.06795,-2.67419 9.70182,-7.916081 15.39613,-12.333788 14.20395,-11.018746 39.49093,-16.123904 52.24311,-0.224319 -3.2079,-1.487062 -4.92621,-2.676081 -8.59912,-2.855662 -12.10632,-0.592304 -21.39163,7.354022 -26.19371,17.929801 -2.17955,4.799554 -2.22051,8.299819 -3.58722,12.932389 l -0.23503,-0.28922 c -0.1884,-1.93948 0.76559,-2.29738 -0.83552,-3.90542 -2.66033,-0.47385 -6.21983,-0.99243 -8.78753,-1.61813 -3.67985,-0.89728 -14.52027,-4.524823 -17.95752,-2.834236 -0.07,1.255176 -0.004,1.492106 0.22431,2.751696 l -0.79394,-0.88468 c 0.0189,-2.765554 -1.69562,-5.283476 -0.87396,-8.668431 z"
     id="path20"
     style="fill:url(#gradient_9);stroke-width:0.630111" />
  <path
     fill="#e66a29"
     d="m 328.94564,89.888238 c 3.56958,-7.701214 15.77609,-12.496356 23.61151,-10.856178 1.52172,0.318836 3.72711,0.62759 5.22236,0.732819 l 0.26717,0.01701 c 5.11902,2.721448 11.70872,6.864426 14.69859,11.999199 -0.37239,1.049134 -0.16194,1.022039 -0.82481,1.48265 -1.58221,1.100174 -4.30933,3.034613 -5.43471,4.490169 -6.27401,-6.597259 -14.13716,-11.876957 -19.89385,-1.336465 -0.3138,0.290481 -0.60554,0.540635 -0.92942,0.818514 -3.61998,-1.297398 -8.33321,-3.867619 -11.98533,-4.805854 -0.5753,-0.148076 -4.75608,0.505348 -5.57837,0.181472 0.26968,-0.955248 0.53055,-1.783214 0.84686,-2.723339 z"
     id="path21"
     style="stroke-width:0.630111" />
  <defs
     id="defs22">
    <linearGradient
       id="gradient_10"
       gradientUnits="userSpaceOnUse"
       x1="623.63928"
       y1="364.86749"
       x2="681.45581"
       y2="271.23499"
       gradientTransform="matrix(0.63011074,0,0,0.63011074,-64.722971,-86.528908)">
      <stop
         offset="0"
         stop-color="#1E1E1C"
         id="stop21" />
      <stop
         offset="1"
         stop-color="#414542"
         id="stop22" />
    </linearGradient>
  </defs>
  <path
     fill="url(#gradient_10)"
     d="m 319.66663,107.78842 c 1.36671,-4.63257 1.40767,-8.132835 3.58722,-12.932389 4.80208,-10.575779 14.08739,-18.522105 26.19371,-17.929801 3.67291,0.179581 5.39122,1.3686 8.59912,2.855662 l -0.26717,-0.01701 c -1.49525,-0.105229 -3.70064,-0.413983 -5.22236,-0.732819 -7.83542,-1.640178 -20.04193,3.154964 -23.61151,10.856178 -6.24817,7.353392 -7.45673,19.130159 -6.87765,28.400979 1.31945,21.12572 18.75839,38.68061 40.77194,31.00019 -1.23943,0.97919 -3.47443,2.22177 -4.97598,2.77815 -15.44465,5.72204 -30.53391,-7.0251 -35.78021,-20.76278 -2.93191,-8.88015 -3.0699,-14.38101 -2.41711,-23.51635 z"
     id="path22"
     style="fill:url(#gradient_10);stroke-width:0.630111" />
  <path
     fill="#a7d065"
     d="m 225.73351,92.414982 c 2.23689,0.676739 5.86633,1.476349 8.12212,1.564565 11.99857,0.466282 46.43412,1.756119 56.55181,-1.639548 -0.82166,3.384955 0.89287,5.902877 0.87396,8.668431 -1.51604,3.45175 -3.73592,6.33955 -5.5519,9.61675 -1.76935,3.19466 -3.12598,6.77306 -4.43031,10.18322 -5.77181,0.48645 -11.4718,0.66603 -17.25936,0.3579 -1.37616,-0.0737 -4.88777,-1.51478 -5.98542,-1.37742 -7.52668,0.94265 -15.09305,2.70255 -22.69722,1.51227 -0.0964,0.0113 -0.19345,0.0227 -0.28985,0.0334 l -0.20542,0.85884 c -0.90799,-2.23815 -1.55322,-4.47504 -2.3919,-6.73273 -1.94704,-5.24126 -5.8783,-9.79759 -8.22232,-14.70363 0.678,-3.078723 1.09955,-5.211648 1.48581,-8.342038 z"
     id="path23"
     style="stroke-width:0.630111" />
  <path
     fill="#81ac3f"
     d="m 292.07534,101.89311 c -0.22873,-1.25959 -0.29426,-1.49652 -0.22431,-2.751696 3.43725,-1.690587 14.27767,1.936956 17.95752,2.834236 2.5677,0.6257 6.1272,1.14428 8.78753,1.61813 1.60111,1.60804 0.64712,1.96594 0.83552,3.90542 l 0.23503,0.28922 c -0.65279,9.13535 -0.5148,14.63621 2.41711,23.51636 -5.86192,-3.85816 -11.22542,-4.97157 -17.3375,-9.96205 -4.69999,-3.83737 -12.09245,-13.54927 -12.6709,-19.44962 z"
     id="path24"
     style="stroke-width:0.630111" />
  <path
     fill="#81ac3f"
     d="m 196.5159,113.09837 c 0.67926,-2.14049 0.0573,-2.97602 0.23503,-5.03963 4.49962,-2.28793 20.83587,-7.30361 25.33423,-5.3238 0.51102,0.77566 0.14871,1.75674 0.0517,2.98168 -3.16378,8.96521 -10.3502,16.15415 -18.59393,20.66448 -3.25831,1.78321 -6.88838,3.14551 -9.94252,5.148 2.19467,-5.7151 2.76618,-12.3571 2.91552,-18.43073 z"
     id="path25"
     style="stroke-width:0.630111" />
  <path
     fill="#45661d"
     d="m 283.80325,134.8605 c 5.73212,0.80339 6.91358,7.49265 1.93003,10.618 -3.82351,0.64019 -5.18077,-2.48516 -4.81531,-5.77056 0.27977,-2.51981 0.98361,-3.25326 2.88528,-4.84744 z"
     id="path26"
     style="stroke-width:0.630111" />
  <path
     fill="#45661d"
     d="m 230.97225,134.85294 c 5.47251,1.66853 5.5853,8.42584 0.63641,10.73961 -6.29481,-1.28984 -5.69179,-7.67412 -0.63641,-10.73961 z"
     id="path27"
     style="stroke-width:0.630111" />
  <defs
     id="defs28">
    <linearGradient
       id="gradient_11"
       gradientUnits="userSpaceOnUse"
       x1="406.6998"
       y1="623.57025"
       x2="297.81921"
       y2="589.80792"
       gradientTransform="matrix(0.63011074,0,0,0.63011074,-64.722971,-86.528908)">
      <stop
         offset="0"
         stop-color="#648F24"
         id="stop27" />
      <stop
         offset="1"
         stop-color="#A1CB5E"
         id="stop28" />
    </linearGradient>
  </defs>
  <path
     fill="url(#gradient_11)"
     d="m 146.89027,241.71972 c 2.78698,-3.83863 11.41445,-16.50008 15.79877,-17.30284 1.81534,0.33207 2.65591,1.93066 3.38495,3.50909 6.9999,13.89394 10.84484,29.16152 11.26134,44.71328 -2.76997,4.94196 -10.78372,12.08805 -15.29342,15.81578 6.59348,10.31996 13.00486,16.83467 23.53653,23.5025 2.80588,1.77692 5.4221,3.01193 8.1341,4.62187 -1.15563,0.55449 -3.12787,1.41586 -4.09257,2.14111 -2.74539,7.49706 -13.39553,10.07421 -20.08667,13.55431 0.48707,2.92498 2.0466,8.26958 2.28289,10.28026 2.90733,7.50336 4.11336,10.40124 10.07547,15.96575 -4.38935,-0.41525 -14.51838,0.62192 -19.06274,1.51352 -1.54692,0.30309 -2.94703,1.30937 -4.11462,1.51227 -2.05795,0.35727 -7.59725,0.14303 -9.29729,1.16381 l 0.64776,0.42155 c -0.18274,0.94831 0.0145,0.51732 -0.72148,1.2766 -5.24945,0.96092 -8.50839,1.38247 -13.60976,3.16694 -0.5482,1.75045 -1.0359,3.85187 -2.11339,5.28474 0.70509,-2.9924 0.80402,-4.10769 0.80402,-7.13412 -0.0643,-1.29991 -0.24638,-2.86637 -0.36295,-4.18708 l -0.10775,-0.86451 c 0.16572,-2.11844 -5.12721,-20.44332 -5.93501,-23.88624 -1.46501,-6.49581 -2.74287,-13.03195 -3.83233,-19.60149 l -1.20918,-0.22873 c -19.41624,-4.71638 -48.570199,-13.69986 -44.555759,-39.29433 0.31001,-1.5318 0.80276,-3.02012 1.46815,-4.43409 6.19651,-13.28652 26.383999,-23.63798 38.891069,-30.56226 9.95008,-5.50969 22.59073,-12.10821 33.19864,-15.91975 -1.53558,4.53365 -3.9174,10.57011 -5.08877,14.97206 z"
     id="path28"
     style="fill:url(#gradient_11);stroke-width:0.630111" />
  <path
     fill="#a7d065"
     d="m 146.89027,241.71972 c 2.78698,-3.83863 11.41445,-16.50008 15.79877,-17.30284 1.81534,0.33207 2.65591,1.93066 3.38495,3.50909 -1.16444,4.0409 -5.37421,11.70241 -7.39876,15.83342 -4.44732,9.07422 -9.14858,18.25242 -13.68538,27.29135 -1.09261,2.17641 -5.57522,10.06602 -6.06103,11.72322 l 0.37366,0.30497 c 0.51795,0.4291 1.90671,1.55259 2.09952,2.08819 2.09449,5.81088 4.55318,14.51145 5.85499,20.36454 l -0.24385,0.0876 c -1.10647,-6.43343 -4.27719,-14.90653 -6.36727,-21.17928 -0.0573,-0.17076 -1.7914,-0.9647 -2.07369,-1.09261 -0.73219,-1.99556 26.86225,-50.24819 26.85154,-55.52473 -0.69376,-1.44989 -1.75675,-2.31188 -2.90229,-3.45994 -7.12152,6.45737 -11.27521,12.27393 -16.98779,19.85227 -2.1241,2.81785 -11.47117,18.72122 -12.68602,19.18939 -9.52664,15.44591 -12.69106,24.28132 -10.22544,42.71206 0.39193,2.93001 1.30685,8.32943 1.56394,11.07041 l -1.20918,-0.22873 c -19.41624,-4.71638 -48.570199,-13.69986 -44.555759,-39.29433 0.31001,-1.5318 0.80276,-3.02012 1.46815,-4.43409 6.19651,-13.28652 26.383999,-23.63798 38.891069,-30.56226 9.95008,-5.50969 22.59073,-12.10821 33.19864,-15.91975 -1.53558,4.53365 -3.9174,10.57011 -5.08877,14.97206 z"
     id="path29"
     style="stroke-width:0.630111" />
  <defs
     id="defs30">
    <linearGradient
       id="gradient_12"
       gradientUnits="userSpaceOnUse"
       x1="299.26682"
       y1="638.51697"
       x2="270.61649"
       y2="563.37616"
       gradientTransform="matrix(0.63011074,0,0,0.63011074,-64.722971,-86.528908)">
      <stop
         offset="0"
         stop-color="#568126"
         id="stop29" />
      <stop
         offset="1"
         stop-color="#7EA83C"
         id="stop30" />
    </linearGradient>
  </defs>
  <path
     fill="url(#gradient_12)"
     d="m 78.421181,277.66376 c 3.55445,3.24885 3.85879,4.7315 9.29287,5.70061 9.04146,1.69752 17.295279,-4.86005 24.015409,-10.3376 8.07991,-6.58592 17.73006,-11.72069 25.99963,-17.74896 -1.31189,2.5154 -3.36164,5.60421 -4.88147,8.12654 -9.52664,15.44591 -12.69106,24.28132 -10.22544,42.71206 0.39193,2.93001 1.30685,8.32943 1.56394,11.07041 l -1.20918,-0.22873 C 103.5607,312.24171 74.406741,303.25823 78.421181,277.66376 Z"
     id="path30"
     style="fill:url(#gradient_12);stroke-width:0.630111" />
  <path
     fill="#547e27"
     d="m 160.26815,289.73983 c 0.5671,-0.57907 1.08694,-0.8412 1.77376,-1.2848 6.59348,10.31996 13.00486,16.83467 23.53653,23.5025 2.80588,1.77692 5.4221,3.01193 8.1341,4.62187 -1.15563,0.55449 -3.12787,1.41586 -4.09257,2.14111 -2.74539,7.49706 -13.39553,10.07421 -20.08667,13.55431 -0.85317,-4.46307 -1.93696,-8.91354 -2.97223,-13.34196 -2.02077,-8.80643 -4.08564,-20.33115 -6.71257,-28.82379 z"
     id="path31"
     style="stroke-width:0.630111" />
  <path
     fill="#d0501c"
     d="m 166.56107,318.93286 c 8.34959,0.10397 14.57383,0.93193 23.0589,-0.21235 -2.74539,7.49706 -13.39553,10.07421 -20.08667,13.55431 -0.85317,-4.46307 -1.93696,-8.91354 -2.97223,-13.34196 z"
     id="path32"
     style="stroke-width:0.630111" />
  <defs
     id="defs33">
    <linearGradient
       id="gradient_13"
       gradientUnits="userSpaceOnUse"
       x1="352.15625"
       y1="709.19507"
       x2="350.5929"
       y2="701.58362"
       gradientTransform="matrix(0.63011074,0,0,0.63011074,-64.722971,-86.528908)">
      <stop
         offset="0"
         stop-color="#B59034"
         id="stop32" />
      <stop
         offset="1"
         stop-color="#989938"
         id="stop33" />
    </linearGradient>
  </defs>
  <path
     fill="url(#gradient_13)"
     d="m 171.81619,342.55508 c 2.90733,7.50336 4.11336,10.40124 10.07547,15.96575 -4.38935,-0.41525 -14.51838,0.62192 -19.06274,1.51352 -1.54692,0.30309 -2.94703,1.30937 -4.11462,1.51227 -2.05795,0.35727 -7.59725,0.14303 -9.29729,1.16381 l 0.64776,0.42155 c -0.18274,0.94831 0.0145,0.51732 -0.72148,1.2766 -5.24945,0.96092 -8.50839,1.38247 -13.60976,3.16694 -0.5482,1.75045 -1.0359,3.85187 -2.11339,5.28474 0.70509,-2.9924 0.80402,-4.10769 0.80402,-7.13412 -0.0643,-1.29991 -0.24638,-2.86637 -0.36295,-4.18708 l 2.56266,0.45242 c 2.80652,-1.88781 5.81404,-2.59165 8.93434,-4.07808 4.73151,-3.05541 17.70549,-5.23937 23.4313,-5.92493 1.51857,-0.18147 5.52229,1.96216 6.96588,1.64081 l 0.155,0.17517 -0.42343,1.19595 0.39004,0.12917 0.55639,-0.34152 c 0.0208,-2.31944 -5.25576,-8.09251 -4.8172,-12.23297 z"
     id="path33"
     style="fill:url(#gradient_13);stroke-width:0.630111" />
  <path
     fill="#9b9838"
     d="m 136.62387,361.99148 c 2.80652,-1.88781 5.81404,-2.59165 8.93434,-4.07808 l 1.81976,0.29552 c -0.53811,0.60743 -3.4278,1.47635 -4.63635,2.20917 -3.3169,2.01068 -4.34083,5.07554 -8.31746,5.30805 -0.0643,-1.29991 -0.24638,-2.86637 -0.36295,-4.18708 z"
     id="path34"
     style="stroke-width:0.630111" />
  <path
     fill="#547e27"
     d="m 159.8485,290.10907 c -1.86576,-1.69688 -4.92558,-2.43222 -6.44541,-3.87203 2.68049,0.42092 5.02703,1.47194 6.86506,3.50279 z"
     id="path35"
     style="stroke-width:0.630111" />
  <defs
     id="defs36">
    <linearGradient
       id="gradient_14"
       gradientUnits="userSpaceOnUse"
       x1="619.82483"
       y1="675.14618"
       x2="730.23364"
       y2="553.99268"
       gradientTransform="matrix(0.63011074,0,0,0.63011074,-64.722971,-86.528908)">
      <stop
         offset="0"
         stop-color="#739830"
         id="stop35" />
      <stop
         offset="1"
         stop-color="#A5D263"
         id="stop36" />
    </linearGradient>
  </defs>
  <path
     fill="url(#gradient_14)"
     d="m 349.73426,228.02174 c 1.22304,-2.28037 2.84306,-4.94259 5.77244,-2.68364 5.18455,3.99868 8.55943,11.02505 13.06094,15.39298 -0.33963,-1.84812 -3.56958,-11.13658 -4.42653,-14.15985 15.25939,6.56134 30.06888,14.1233 44.33144,22.63736 9.51467,5.6439 27.22394,16.16108 28.72297,28.33419 4.45551,23.53274 -21.97322,33.87349 -40.04165,38.48212 -1.11592,0.28481 -2.76114,0.69375 -3.8065,1.10521 l 0.0454,0.0888 c -1.17201,0.0769 -1.22304,-0.13674 -1.84748,0.49338 -1.3831,8.81777 -3.35219,16.87184 -5.47882,25.47033 -0.70383,2.84684 -4.3591,15.25183 -4.41518,17.24298 -0.12603,2.03274 -0.27284,4.07745 -0.32955,6.11271 -1.42405,-0.23882 -3.99364,-1.34151 -5.43156,-1.91239 -8.38362,-3.37991 -16.56435,-5.67793 -25.51948,-6.9999 -3.56958,-0.5274 -9.81019,-1.19784 -12.75659,-2.85062 4.88147,-6.29859 7.12844,-14.98908 8.59345,-22.72684 -6.64578,-3.52294 -17.79748,-5.97407 -20.36266,-13.42639 l -4.09509,-2.03526 c 11.99416,-5.64642 25.80555,-16.08358 31.66495,-28.19116 -5.28978,-4.64958 -11.9658,-10.25442 -15.26443,-16.42887 0.37492,-0.88027 0.98739,-11.88704 1.56268,-14.54233 2.12599,-9.81713 5.80836,-20.33682 10.02128,-29.40286 z"
     id="path36"
     style="fill:url(#gradient_14);stroke-width:0.630111" />
  <path
     fill="#a7d065"
     d="m 364.14111,226.57123 c 15.25939,6.56134 30.06888,14.1233 44.33144,22.63736 9.51467,5.6439 27.22394,16.16108 28.72297,28.33419 4.45551,23.53274 -21.97322,33.87349 -40.04165,38.48212 -1.11592,0.28481 -2.76114,0.69375 -3.8065,1.10521 l -0.96596,-0.0296 c -1.58347,-0.97037 0.0296,-5.75669 0.27221,-7.39876 0.82293,-5.57396 1.35348,-11.32687 1.22746,-16.96447 -0.32136,-14.34069 -9.30044,-26.00908 -16.11698,-37.94149 -0.32513,-0.31821 -8.74656,-13.2046 -9.19646,-14.0647 -0.33963,-1.84812 -3.56958,-11.13658 -4.42653,-14.15985 z"
     id="path37"
     style="stroke-width:0.630111" />
  <defs
     id="defs38">
    <linearGradient
       id="gradient_15"
       gradientUnits="userSpaceOnUse"
       x1="722.32074"
       y1="637.9361"
       x2="752.28577"
       y2="562.47552"
       gradientTransform="matrix(0.63011074,0,0,0.63011074,-64.722971,-86.528908)">
      <stop
         offset="0"
         stop-color="#547E24"
         id="stop37" />
      <stop
         offset="1"
         stop-color="#7CA73C"
         id="stop38" />
    </linearGradient>
  </defs>
  <path
     fill="url(#gradient_15)"
     d="m 377.7641,254.79578 c 1.25203,0.53748 2.38875,1.86765 3.76681,2.67671 12.43145,7.29794 24.02423,18.16861 36.69323,24.80116 5.62752,2.94576 15.01743,1.36608 18.71051,-4.33579 l 0.26087,-0.39508 c 4.45551,23.53274 -21.97322,33.87349 -40.04165,38.48212 -1.11592,0.28481 -2.76114,0.69375 -3.8065,1.10521 l -0.96596,-0.0296 c -1.58347,-0.97037 0.0296,-5.75669 0.27221,-7.39876 0.82293,-5.57396 1.35348,-11.32687 1.22746,-16.96447 -0.32136,-14.34069 -9.30044,-26.00908 -16.11698,-37.94149 z"
     id="path38"
     style="fill:url(#gradient_15);stroke-width:0.630111" />
  <path
     fill="#81ac3f"
     d="m 338.1503,271.96693 c 0.37492,-0.88027 0.98739,-11.88704 1.56268,-14.54233 2.12599,-9.81713 5.80836,-20.33682 10.02128,-29.40286 1.19469,3.57462 5.59097,11.73455 7.53045,15.63368 l 13.82148,28.04308 c 0.66351,1.3226 5.43534,10.32814 5.66911,11.10633 l -0.37303,0.29993 c -3.29296,2.67734 -3.68237,6.72581 -4.90478,10.7875 -2.25832,7.51092 -4.45425,15.03948 -6.58781,22.58632 -0.81536,2.93127 -2.59038,10.31428 -3.69371,12.7087 l -0.26969,-0.14555 c 0.23252,-0.6988 0.39382,-1.20225 0.6988,-1.87458 0.53055,-1.17012 0.49085,-2.74351 0.89286,-3.94765 4.361,-13.05652 6.97029,-27.25355 12.28968,-39.91499 -1.19658,-0.35223 -5.14611,0.24322 -6.24061,0.86703 -3.85628,0.67359 -10.46551,2.91237 -13.37788,5.63697 -0.51228,-1.09387 -0.79961,-1.0044 -1.7744,-1.41271 -5.28978,-4.64958 -11.9658,-10.25442 -15.26443,-16.42887 z"
     id="path39"
     style="stroke-width:0.630111" />
  <path
     fill="#547e27"
     d="m 353.41473,288.3958 c 0.97479,0.40831 1.26212,0.31884 1.7744,1.41271 l 0.4562,0.81978 c -1.4543,5.84742 -2.83298,11.71312 -4.13668,17.59647 -0.57592,2.66096 -1.5778,8.29982 -2.33645,10.67533 -1.16319,4.40763 -1.71327,8.76736 -2.96467,13.14852 -6.64578,-3.52294 -17.79748,-5.97407 -20.36266,-13.42639 l -4.09509,-2.03526 c 11.99416,-5.64642 25.80555,-16.08358 31.66495,-28.19116 z"
     id="path40"
     style="stroke-width:0.630111" />
  <path
     fill="#d0501c"
     d="m 325.84487,318.62222 c 7.49454,1.09702 15.8057,0.43477 23.32733,0.27787 -1.16319,4.40763 -1.71327,8.76736 -2.96467,13.14852 -6.64578,-3.52294 -17.79748,-5.97407 -20.36266,-13.42639 z"
     id="path41"
     style="stroke-width:0.630111" />
  <path
     fill="#547e27"
     d="m 355.18913,289.80851 c 2.91237,-2.7246 9.5216,-4.96338 13.37788,-5.63697 l 0.46628,0.29174 1.06048,-0.0895 -0.0939,0.28355 c -3.92118,1.09135 -12.0326,2.89788 -14.35455,5.97093 z"
     id="path42"
     style="stroke-width:0.630111" />
  <defs
     id="defs43">
    <linearGradient
       id="gradient_16"
       gradientUnits="userSpaceOnUse"
       x1="636.82898"
       y1="564.79987"
       x2="678.39691"
       y2="465.59396"
       gradientTransform="matrix(0.63011074,0,0,0.63011074,-64.722971,-86.528908)">
      <stop
         offset="0"
         stop-color="#1A659F"
         id="stop42" />
      <stop
         offset="1"
         stop-color="#2B7CB2"
         id="stop43" />
    </linearGradient>
  </defs>
  <path
     fill="url(#gradient_16)"
     d="m 348.92583,196.94972 c 1.40892,-0.95462 2.14048,-1.16192 3.71072,-1.76053 4.06673,7.29857 8.40505,20.72434 10.61925,28.96304 0.2867,0.79961 0.56899,1.63514 0.88531,2.419 0.85695,3.02327 4.0869,12.31173 4.42653,14.15985 -4.50151,-4.36793 -7.87639,-11.3943 -13.06094,-15.39298 -2.92938,-2.25895 -4.5494,0.40327 -5.77244,2.68364 -4.21292,9.06604 -7.89529,19.58573 -10.02128,29.40286 -0.57529,2.65529 -1.18776,13.66206 -1.56268,14.54233 -11.87317,-18.68783 -7.44728,-35.38072 3.65779,-53.44726 2.33457,-3.79704 4.12471,-9.11707 5.20976,-13.43774 0.66477,-2.64709 1.00251,-5.60294 1.90798,-8.13221 z"
     id="path43"
     style="fill:url(#gradient_16);stroke-width:0.630111" />
  <path
     fill="#81ac3f"
     d="m 348.92583,196.94972 c 1.40892,-0.95462 2.14048,-1.16192 3.71072,-1.76053 4.06673,7.29857 8.40505,20.72434 10.61925,28.96304 -6.75163,-4.7712 -11.29536,-14.16615 -13.76098,-21.84972 -0.55702,-1.73658 -0.009,-3.48955 -0.56899,-5.35279 z"
     id="path44"
     style="stroke-width:0.630111" />
  <path
     fill="#2670a7"
     d="m 162.85412,195.14193 c 1.61057,0.61688 2.40766,0.84309 3.79831,1.9231 l 0.33207,0.82923 c 2.7895,11.61924 4.64959,17.11128 10.93242,27.50181 8.28596,13.70113 9.33887,31.10668 0.76055,45.11908 -0.43856,0.71392 -0.88594,1.42216 -1.34214,2.1241 -0.4165,-15.55176 -4.26144,-30.81934 -11.26134,-44.71328 -0.72904,-1.57843 -1.56961,-3.17702 -3.38495,-3.50909 -4.38432,0.80276 -13.01179,13.46421 -15.79877,17.30284 1.17137,-4.40195 3.55319,-10.43841 5.08877,-14.97206 l 0.7303,-2.47823 c 2.22933,-9.58335 6.39689,-20.10179 10.14478,-29.1275 z"
     id="path45"
     style="stroke-width:0.630111" />
  <path
     fill="#81ac3f"
     d="m 162.85412,195.14193 c 1.61057,0.61688 2.40766,0.84309 3.79831,1.9231 l 0.33207,0.82923 c -0.75424,1.91238 -0.64586,4.0472 -1.21989,6.02953 -1.64144,5.67036 -7.62939,17.67649 -13.05527,20.34564 2.22933,-9.58335 6.39689,-20.10179 10.14478,-29.1275 z"
     id="path46"
     style="stroke-width:0.630111" />
  <path
     fill="#fbfac5"
     d="m 372.58018,169.74532 c 1.94263,3.16505 0.91177,9.2872 -1.08757,12.20588 -0.293,-0.31191 -0.13988,-0.0857 -0.21928,-0.79142 1.24321,-1.71327 2.08063,-4.9993 0.87019,-6.81465 -1.63766,0.0617 -3.37677,3.2709 -7.19839,3.59037 0.44549,-0.23566 0.88909,-0.47447 1.33143,-0.71518 4.07933,-2.22681 5.03458,-3.14677 6.30362,-7.475 z"
     id="path47"
     style="stroke-width:0.630111" />
  <path
     fill="#e66a29"
     d="m 337.61408,354.77545 c 2.9464,1.65278 9.18701,2.32322 12.75659,2.85062 8.95513,1.32197 17.13586,3.61999 25.51948,6.9999 1.43792,0.57088 4.00751,1.67357 5.43156,1.91239 0.17265,8.34644 5.53615,17.64058 13.25501,21.08161 5.0831,2.26588 10.12084,2.27155 14.11637,7.01124 2.21988,2.64962 3.26208,6.09002 2.88528,9.52665 -0.90106,8.05596 -9.18072,12.22289 -16.62926,11.00803 -6.29732,-1.02708 -10.41132,-4.15054 -12.94562,-10.04522 -0.90358,-2.10142 -1.99745,-4.48135 -3.37613,-6.3093 -3.49838,-4.407 -11.39997,-10.57704 -16.89012,-11.35775 -6.57773,-0.93508 -12.93303,5.68297 -16.04829,10.75536 -2.58409,4.69118 -3.37614,9.61297 -7.87576,13.03447 -6.5563,4.98418 -18.21272,3.10393 -22.93351,-3.74411 -1.91932,-2.80274 -2.66159,-6.24692 -2.06739,-9.59092 2.19404,-11.80576 17.168,-8.06164 21.61028,-16.27954 0.86073,-1.59292 -3.99112,-2.29802 -4.94763,-2.45617 -11.71313,-1.93822 -14.29785,10.15486 -24.88938,11.22668 -7.22737,0.85632 -15.07162,-4.7586 -15.72693,-12.14034 -0.30749,-3.32132 0.78071,-6.62121 3.00374,-9.10762 7.52352,-8.40883 16.059,-2.20728 23.52959,-2.69373 7.85307,-0.51039 17.03505,-5.65524 22.22212,-11.68225 z"
     id="path48"
     style="stroke-width:0.630111" />
  <path
     fill="#e66a29"
     d="m 135.73353,367.57552 c 5.10137,-1.78447 8.36031,-2.20602 13.60976,-3.16694 0.73597,-0.75928 0.53874,-0.32829 0.72148,-1.2766 l -0.64776,-0.42155 c 1.70004,-1.02078 7.23934,-0.80654 9.29729,-1.16381 1.16759,-0.2029 2.5677,-1.20918 4.11462,-1.51227 4.54436,-0.8916 14.67339,-1.92877 19.06274,-1.51352 6.89845,4.84618 15.36777,9.30673 24.00785,7.35276 4.97346,-1.12538 11.2292,-2.2287 15.50198,0.96659 10.08682,7.61048 4.94511,22.31915 -7.27021,23.52959 -7.03771,0.69754 -11.28277,-2.96845 -15.91597,-7.63757 -3.24696,-3.27216 -13.00171,-5.34082 -16.46795,-1.81346 -1.26526,4.41204 7.9646,6.38744 10.88202,7.02763 3.91298,0.85821 7.82597,4.20536 9.42834,7.91104 1.03591,2.34779 1.29551,4.9659 0.74101,7.47185 -0.7492,3.23499 -2.97853,6.15429 -5.80017,7.85622 -4.63572,2.79706 -8.90409,3.55005 -14.1025,2.2035 -8.58211,-2.22366 -8.7661,-7.11899 -11.98471,-13.74713 -4.1852,-8.61865 -13.81707,-16.15288 -23.31851,-9.7434 -4.28853,2.72712 -7.93561,5.70691 -11.01685,9.77995 -1.90546,2.51792 -2.80085,5.53552 -4.31878,8.02761 -3.58218,6.00307 -10.6577,8.97152 -17.45092,7.32189 -3.70631,-0.90799 -7.25573,-2.90166 -9.00428,-6.16942 -6.539289,-12.2191 4.33138,-18.29022 14.38417,-20.6985 7.06228,-1.69122 10.89272,-9.11014 13.43396,-15.29972 1.07749,-1.43287 1.56519,-3.53429 2.11339,-5.28474 z"
     id="path49"
     style="stroke-width:0.630111" />
  <path
     fill="#e66a29"
     d="m 393.39274,317.21896 c 14.03005,4.15684 27.52198,9.28909 42.06304,11.47936 9.25633,1.3938 21.25994,-5.20031 27.06137,4.92809 1.33016,2.30747 1.64333,5.06357 0.86451,7.61048 -2.60047,8.56951 -12.56882,9.54555 -19.69033,5.81214 0.6591,3.25011 0.63263,5.76047 -1.24447,8.70435 -3.66472,5.74976 -13.01368,7.48257 -18.50383,3.46687 -2.36544,-1.73028 -3.86951,-4.2293 -5.66533,-6.49329 -3.56138,-4.64455 -11.02567,-7.6382 -16.48936,-9.29918 11.78181,14.6463 -5.68927,27.14455 -20.13708,16.99787 0.0561,-1.99115 3.71135,-14.39614 4.41518,-17.24298 2.12663,-8.59849 4.09572,-16.65256 5.47882,-25.47033 0.62444,-0.63012 0.67547,-0.41651 1.84748,-0.49338 z"
     id="path50"
     style="stroke-width:0.630111" />
  <path
     fill="#d0501c"
     d="m 417.48692,334.9906 c 1.16318,0.18588 6.71319,2.32322 7.33007,3.19025 l -0.38436,0.12161 c -2.72271,-0.79205 -4.55192,-1.85126 -6.94571,-3.31186 z"
     id="path51"
     style="stroke-width:0.630111" />
  <path
     fill="#e66a29"
     d="m 122.97694,316.95809 1.20918,0.22873 c 1.08946,6.56954 2.36732,13.10568 3.83233,19.60149 0.8078,3.44292 6.10073,21.7678 5.93501,23.88624 -2.78004,1.69121 -5.14926,2.95711 -8.49767,3.40637 -6.80141,0.9124 -14.82713,-2.84999 -15.37911,-10.40627 -0.32766,-4.48072 1.44736,-7.02826 4.15873,-10.26955 -4.19213,1.02393 -14.295319,4.88903 -16.405559,8.84045 -5.03963,9.43591 -14.88511,12.81835 -23.42437,4.70819 -2.38434,-2.26462 -2.96971,-5.85184 -2.72397,-9.47938 -4.11714,1.7265 -7.99547,2.69435 -12.377264,1.02078 -2.891579,-1.11215 -5.211646,-3.34589 -6.431541,-6.19399 -1.066147,-2.53494 -1.057956,-5.39438 0.02205,-7.92365 4.799554,-11.2481 17.918465,-4.1373 25.533985,-5.37988 13.43018,-2.19027 31.625879,-6.97659 44.280399,-11.93304 z"
     id="path52"
     style="stroke-width:0.630111" />
  <path
     fill="#d0501c"
     d="m 96.696911,335.66293 0.35349,0.0567 c -1.01889,1.40452 -7.32882,3.19907 -9.216,3.59604 -0.34908,-0.0233 -0.18147,0.041 -0.47132,-0.26023 3.10077,-0.94832 6.28976,-2.23312 9.33383,-3.39252 z"
     id="path53"
     style="stroke-width:0.630111" />
</svg>
